# xmcd
#
# Track frame offsets: 
#        150
#        19972
#        41376
#        54786
#        74435
#        94844
#        104835
#        120665
#        134494
#        147704
#        160182
#        174696
#        189270
#        214887
#        231561
#        253982
#        280004
#        297493
#        314848
#        332959
#        346841
#        359555
#
# Disc length: 5000 seconds
#
# Revision: 1
# Processed by: cddbd v1.5.2PL0 Copyright (c) Steve Scherf et al.
# Submitted via: ExactAudioCopy v1.0b6
#
DISCID=72138616
DTITLE=Various Artist - Truckers, Kickers, Cowboy Angels #7 CD1
DYEAR=2015
DGENRE=Rock
TTITLE0=Gram Parsons - Return Of The Grievous Angel
TTITLE1=Gene Clark - Life's Greatest Fool
TTITLE2=New Riders Of The Purple Sage - Crooked Judge
TTITLE3=Flying Burrito Brothers - Building Fires
TTITLE4=Richard Betts - Long Time Gone
TTITLE5=J.J. Cale - Cajun Moon
TTITLE6=Hoyt Axton - When The Morning Comes
TTITLE7=Willie Nelson and Tracy Nelson - After The Fire Is Gone
TTITLE8=Waylon Jennings - Are You Sure Hank Done It This Way
TTITLE9=Hank Williams, Jr. - Stoned At The Jukebox
TTITLE10=Charlie Daniels Band - Willie Jones
TTITLE11=Muleskinner - Mule Skinner Blues
TTITLE12=Barefoot Jerry - Mother Nature's Way Of Saying High
TTITLE13=Larry Jon Wilson - Ohoopee River Bottomland
TTITLE14=Guy Clark - L. A. Freeway
TTITLE15=Nitty Gritty Dirt Band - Ripplin' Waters
TTITLE16=Souther-Hillman-Furay Band - Border Town
TTITLE17=The Doobie Brothers - Tell Me What You Want, (And I'll Give Y
TTITLE17=ou What You Need)
TTITLE18=Billy Swan - I Can Help
TTITLE19=The Outlaws - There Goes Another Love Song
TTITLE20=Willie Nelson - Bloody Mary Morning
TTITLE21=Garm Parsons - Brass Buttons
EXTD=
EXTT0=
EXTT1=
EXTT2=
EXTT3=
EXTT4=
EXTT5=
EXTT6=
EXTT7=
EXTT8=
EXTT9=
EXTT10=
EXTT11=
EXTT12=
EXTT13=
EXTT14=
EXTT15=
EXTT16=
EXTT17=
EXTT18=
EXTT19=
EXTT20=
EXTT21=
PLAYORDER=
